<?xml version="1.0" encoding="utf-8"?>
<!-- Generator: Adobe Illustrator 17.0.0, SVG Export Plug-In . SVG Version: 6.00 Build 0)  -->
<!DOCTYPE svg PUBLIC "-//W3C//DTD SVG 1.1//EN" "http://www.w3.org/Graphics/SVG/1.1/DTD/svg11.dtd">
<svg version="1.1" id="Layer_1" xmlns="http://www.w3.org/2000/svg" xmlns:xlink="http://www.w3.org/1999/xlink" x="0px" y="0px"
	 width="612px" height="288px" viewBox="0 253.5 612 288" enable-background="new 0 253.5 612 288" xml:space="preserve">
<g>
	<g opacity="0.2">
		<g>
			<path fill="#FCF7F7" d="M363.94,270.332c-0.866-0.113-1.732-0.376-2.146-1.28c-0.565-1.28,0.376-3.915,1.657-4.555
				c2.522-1.28,5.233-2.146,8.019-2.184c4.217-0.075,8.471,0.113,12.687,0.301c3.802,0.188,7.642,0.489,11.407-0.264
				c3.162-0.64,6.362-0.791,9.563-0.602c2.033,0.113,4.104,0.264,6.137,0.452c4.593,0.376,9.111,0.226,13.704-0.602
				c4.706-0.828,9.525-0.941,14.268-1.205c4.028-0.226,8.019,0.038,11.972,0.979c1.656,0.414,3.238,1.129,4.894,1.355
				c6.249,0.904,12.386,2.372,18.334,4.329c6.438,2.108,12.763,4.518,19.2,6.664c10.466,3.464,20.066,8.508,28.876,15.134
				c4.217,3.162,8.433,6.362,11.558,10.692c2.447,3.426,4.932,6.814,7.003,10.466c4.066,7.228,7.831,14.607,11.746,21.911
				c1.656,3.125,3.614,6.061,4.254,9.638c0.414,2.334,1.054,4.631,1.431,6.965c1.393,8.433,1.393,16.866-0.753,25.224
				c-0.602,2.334-1.544,4.593-1.958,6.965c-0.678,3.84-0.941,7.755-1.506,11.633c-0.452,3.012-0.828,6.061-1.694,8.96
				c-1.732,5.948-3.953,11.746-5.647,17.694c-1.882,6.513-4.48,12.612-8.169,18.297c-2.259,3.464-4.217,7.115-6.287,10.692
				c-0.828,1.431-1.28,3.125-2.259,4.405c-5.271,7.002-10.692,13.892-16,20.819c-2.824,3.652-5.497,7.417-8.96,10.504
				c-1.054,0.941-1.995,1.995-2.899,3.087c-5.346,6.212-10.617,12.461-15.963,18.636c-7.115,8.283-15.774,14.457-25.864,18.598
				c-6.475,2.673-13.29,4.367-20.029,6.25c-5.798,1.619-11.708,2.899-17.732,2.899c-7.266,0-14.419,0.828-21.572,1.619
				c-5.233,0.602-10.504,0.979-15.737,0.151c-2.108-0.339-4.141-0.151-6.212,0.113c-1.28,0.151-2.522,0.452-3.802,0.565
				c-2.748,0.188-5.497,0.565-8.245,0.376c-4.668-0.301-9.035-1.958-13.214-3.915c-4.405-2.071-8.734-4.329-13.139-6.475
				c-0.866-0.414-1.355-0.979-1.732-1.882c-1.544-3.765-3.84-6.927-7.417-9.073c-1.242-0.753-2.409-1.732-3.501-2.673
				c-3.426-2.974-6.174-6.513-8.998-10.014c-0.527-0.64-1.054-1.28-1.732-1.807c-4.254-3.2-8.207-6.777-11.708-10.843
				c-5.346-6.174-9.487-13.026-11.37-21.045c-0.904-3.802-1.431-7.68-0.791-11.558c1.393-8.508,3.689-16.791,6.4-24.998
				c2.786-8.433,5.685-16.791,8.546-25.186c0.527-1.581,0.979-3.238,1.807-4.668c1.656-2.786,3.464-5.497,5.384-8.057
				c2.936-3.915,4.555-8.207,4.781-13.177c0.301-7.341,0.791-14.683,1.355-21.986c0.602-7.68,1.845-15.247,5.045-22.325
				c3.012-6.664,6.852-12.725,13.403-16.565c0.791-0.489,1.506-1.092,2.259-1.656c2.184-1.656,3.84-3.727,5.082-6.212
				c1.882-3.765,3.765-7.567,6.024-11.068c2.108-3.238,3.501-6.701,4.668-10.315c2.184-6.852,3.878-13.854,7.605-20.292
				C365.144,270.408,364.542,270.408,363.94,270.332z M401.55,274.85c1.769,0.602,3.539,1.205,5.271,1.845
				c0.376,0.151,0.753,0.376,1.016,0.678c2.673,3.501,5.271,7.04,7.944,10.504c4.969,6.475,7.642,13.741,7.379,21.911
				c-0.226,7.981-3.501,14.72-9.299,20.179c-2.56,2.447-5.798,3.2-9.186,2.974c-3.388-0.226-6.739-0.828-10.127-1.28
				c-0.64-0.075-1.28-0.188-2.033-0.301c0.075,0.565,0.113,1.016,0.188,1.468c1.016,5.308,3.652,9.788,7.417,13.591
				c6.325,6.438,13.628,11.483,22.25,14.457c4.405,1.506,8.847,2.936,13.214,4.518c2.824,1.017,5.572,2.297,8.358,3.501
				c0.301,0.151,0.602,0.339,1.054,0.602c-2.259,0.64-4.405,0.791-6.513,0.301c-3.125-0.753-6.174-1.694-9.261-2.598
				c-2.824-0.828-5.685-1.619-8.471-2.635c-5.685-2.108-10.88-5.195-16-8.358c-2.184-1.355-4.367-2.673-6.739-4.141
				c0.151,0.64,0.226,1.054,0.339,1.468c0.904,4.367,1.807,8.734,2.711,13.101c1.054,5.308-0.113,10.24-2.711,14.833
				c-1.732,3.087-3.878,5.986-5.835,8.922c-3.426,5.158-6.174,10.692-8.17,16.527c-1.92,5.534-3.652,11.181-5.195,16.829
				c-1.28,4.744-1.205,9.675-1.393,14.532c-0.188,5.007-0.301,10.014-0.904,14.984c-0.489,3.727-1.657,7.379-2.635,11.031
				c-1.129,4.254-2.372,8.471-3.577,12.687c-0.038,0.151-0.075,0.301-0.151,0.64c0.715-0.301,1.318-0.565,1.882-0.828
				c6.927-3.125,13.892-6.061,21.233-7.981c7.04-1.845,14.118-2.56,21.384-1.732c3.049,0.339,5.61,1.769,8.094,3.388
				c0.715,0.452,1.431,0.979,2.146,1.431c-0.038,0.075-0.038,0.188-0.075,0.264c-2.071-0.113-4.141-0.226-6.25-0.376
				c-3.614-0.264-7.228-0.602-10.843-0.828c-5.082-0.339-9.939,0.941-14.796,2.221c-6.701,1.732-13.214,3.953-19.238,7.454
				c-4.48,2.598-8.433,5.835-11.633,9.977c-0.301,0.376-0.753,0.715-1.167,0.941c-2.635,1.355-5.308,2.56-7.906,4.028
				c-1.431,0.828-2.748,1.92-3.991,3.012c-0.678,0.602-1.355,0.941-2.259,1.054c-6.362,0.753-12.687,0.828-18.937-0.791
				c-0.791-0.188-1.544-0.452-2.447-0.715c0.339,1.807,0.038,3.577,1.694,5.007c5.045,4.48,10.843,7.266,17.544,8.094
				c0.188,0.038,0.376,0.075,0.678,0.113c0,0.339,0.038,0.678,0.038,1.017c0,2.297,0,4.555-0.038,6.852
				c0,0.602,0.226,0.979,0.678,1.355c4.179,3.313,8.96,5.384,13.967,7.153c5.459,1.92,10.918,1.506,16.452,0.715
				c4.706-0.678,9.412-1.318,14.155-1.318c6.965,0.038,13.93,0.113,20.894-0.226c9.939-0.452,19.84-1.506,29.629-3.351
				c12.687-2.409,23.756-8.282,33.506-16.678c7.567-6.513,14.532-13.666,21.233-21.083c9.675-10.692,18.636-21.986,26.579-34.033
				c4.744-7.191,9.186-14.607,13.591-22.024c1.318-2.259,2.033-4.894,2.899-7.417c5.986-17.544,9.412-35.615,11.37-53.987
				c0.489-4.405,0.979-8.81,0.602-13.252c-0.602-7.078-2.635-13.704-5.497-20.142c-3.351-7.492-7.529-14.532-11.934-21.459
				c-1.318-2.108-2.937-3.953-5.158-5.233c-0.301-0.188-0.527-0.527-0.678-0.866c-3.162-6.852-8.132-11.897-14.871-15.247
				c-1.393-0.715-2.899-1.205-4.329-1.845c-0.339-0.151-0.678-0.376-0.941-0.64c-1.355-1.318-2.673-2.673-4.104-3.802
				c-0.414-0.113-0.904-0.113-1.242-0.301c-3.2-1.845-6.551-3.351-10.052-4.555c-5.195-1.769-10.353-3.614-15.624-5.233
				c-7.04-2.184-14.155-4.179-21.422-5.534c-8.621-1.619-17.28-2.297-26.052-1.28c-0.376,0.038-0.753,0.113-1.431,0.226
				c1.355,0.941,2.522,1.694,3.652,2.522c1.054,0.791,2.108,1.581,3.012,2.522c1.242,1.318,1.318,3.125,0.489,4.744
				c-0.301,0.64-0.64,0.678-1.205,0.414c-2.259-1.092-4.518-2.146-6.739-3.275c-3.765-1.882-7.605-3.614-11.633-4.781
				c-4.104-1.167-8.32-1.769-12.499-0.452c-1.769,0.565-3.426,1.468-5.158,2.221c0,0.151,0.038,0.339,0.038,0.489
				C399.027,273.946,400.307,274.398,401.55,274.85z M371.733,441.177c0.075-4.819,0.151-9.638,0.489-14.419
				c0.452-6.362,2.485-12.386,4.706-18.297c1.167-3.125,2.485-6.212,3.501-9.374c1.205-3.614,3.2-6.777,5.308-9.864
				c1.619-2.372,3.2-4.819,4.518-7.379c0.791-1.544,1.318-3.313,1.506-5.045c0.941-8.395,1.167-16.828-0.113-25.262
				c-1.092-7.191-3.275-13.967-7.002-20.254c-2.673-4.48-6.325-7.341-11.257-8.998c-12.687-4.254-28.575,0.527-36.481,11.294
				c-3.049,4.179-4.857,8.96-6.362,13.854c-1.958,6.362-2.372,12.988-2.861,19.577c-0.376,5.346-0.866,10.692-1.393,16
				c-0.602,6.25-3.125,11.784-6.513,17.017c-2.409,3.689-4.857,7.417-6.965,11.294c-1.355,2.447-2.146,5.233-3.125,7.868
				c-1.807,4.894-3.577,9.826-5.384,14.758c-2.071,5.798-3.991,11.633-4.292,17.807c-0.376,7.981,0.414,15.887,4.254,23.116
				c3.049,5.76,7.68,9.977,13.214,13.252c7.53,4.442,15.624,6.4,24.358,5.421c7.605-0.866,13.44-4.518,17.883-10.654
				c3.426-4.706,5.609-9.977,7.981-16.866C370.679,458.984,371.582,450.137,371.733,441.177z M370.867,282.605
				c-2.259,3.162-3.275,6.814-3.727,10.617c-0.527,4.367-0.489,8.697,0.113,13.064c0.188,1.393,0.602,2.748,1.129,4.066
				c1.092,2.711,3.012,4.518,5.76,5.722c4.329,1.92,8.546,4.141,12.763,6.287c5.12,2.598,10.504,4.329,16.264,4.555
				c4.593,0.188,7.906-2.146,10.391-5.722c3.049-4.367,4.179-9.148,3.162-14.419c-1.807-9.6-6.174-17.77-13.365-24.358
				c-2.108-1.92-4.518-3.238-7.228-3.802c-3.727-0.791-7.492-1.318-11.483-2.033c0.264,0.489,0.414,0.753,0.565,1.016
				c2.071,3.313,4.179,6.626,5.497,10.353c0.075,0.226,0.188,0.489,0.264,0.715c0.979,3.501,1.506,2.711-1.958,4.555
				c-2.974,1.544-6.174,2.071-9.412,0.904c-3.765-1.355-5.045-3.313-5.158-7.228c-0.075-2.824,0.866-5.421,1.732-8.057
				c0.075-0.226,0.151-0.489,0.264-0.715C374.105,278.991,372.297,280.572,370.867,282.605z M362.584,315.058
				c-0.791-4.367-1.581-8.621-2.372-12.875c-0.151-0.038-0.339-0.038-0.489-0.075c-1.882,4.367-3.765,8.772-5.76,13.327
				C356.937,315.321,359.648,315.208,362.584,315.058z"/>
		</g>
		<g>
			<path fill="#FCF7F7" d="M475.791,309.599c1.845,1.431,3.84,2.071,6.25,1.845c2.146-0.226,4.405-0.264,6.513,0.113
				c3.652,0.678,7.191,1.92,10.541,3.577c4.217,2.071,7.755,4.894,9.901,9.186c1.28,2.56,2.522,5.12,3.652,7.755
				c1.581,3.689,2.711,7.454,2.861,11.52c0.113,2.974-0.64,5.798-1.807,8.508c-0.753,1.732-1.431,3.426-1.544,5.308
				c-0.188,3.577,1.054,6.664,3.125,9.487c0.188,0.264,0.339,0.527,0.489,0.791c-0.339,0.075-0.527,0-0.678-0.075
				c-1.242-0.791-2.485-1.581-3.765-2.334c-0.263-0.151-0.753-0.226-1.016-0.075c-2.522,1.242-5.007,2.485-7.492,3.765
				c-4.028,2.108-8.245,3.727-12.763,4.442c-10.09,1.581-19.614-0.376-28.612-5.007c-0.791-0.414-1.581-0.904-2.184-1.544
				c-1.581-1.807-3.2-3.614-4.555-5.609c-6.137-8.922-7.793-18.485-3.915-28.8c2.184-5.873,5.61-10.993,9.713-15.737
				c1.506-1.732,3.275-2.861,5.384-3.577c0.188-0.075,0.376-0.113,0.565-0.188c2.748-0.941,5.534-1.807,6.852-4.932
				C474.285,308.582,475.076,309.034,475.791,309.599z M456.779,352.668c3.727,7.718,9.788,12.574,18.334,14.08
				c5.12,0.904,10.315,1.393,15.511,0.753c4.894-0.565,9.412-2.033,13.026-5.609c2.861-2.824,4.329-6.362,5.045-10.203
				c1.995-10.88-0.715-20.367-8.734-28.16c-2.071-2.033-4.819-3.162-7.492-4.254c-6.287-2.598-12.763-3.539-19.501-2.56
				c-2.861,0.414-5.12,1.694-7.153,3.614c-3.238,3.049-5.459,6.777-7.228,10.805c-0.753,1.656-1.393,3.313-2.071,4.969
				C454.143,341.712,454.181,347.284,456.779,352.668z"/>
		</g>
		<g>
			<path fill="#FCF7F7" d="M547.623,354.625c-0.565-1.092-1.167-2.108-1.694-3.162c-2.409-4.706-4.706-9.487-7.191-14.156
				c-2.334-4.405-5.233-8.471-8.96-11.859c-0.188-0.151-0.339-0.376-0.452-0.602c-1.581-3.765-4.254-6.701-7.341-9.261
				c-3.238-2.673-6.513-5.346-9.901-7.793c-1.807-1.28-3.953-2.108-5.986-3.087c-4.668-2.259-9.374-4.518-13.553-7.642
				c-1.242-0.941-2.598-0.452-3.878-0.527c-0.075,0-0.188,0.075-0.226,0.151c-0.414,0.414-0.226,2.861,0.263,3.2
				c3.464,2.447,6.814,5.007,10.428,7.266c9.45,5.948,16.828,13.817,22.137,23.605c2.598,4.781,5.158,9.525,7.718,14.306
				c0.301,0.565,0.678,0.828,1.28,0.941c6.174,1.28,11.558,4.141,16.414,8.094c0.188,0.151,0.414,0.339,0.602,0.489
				C547.359,354.625,547.472,354.625,547.623,354.625z"/>
		</g>
		<g>
			<path fill="#FCF7F7" d="M406.933,392.235c-2.372-0.828-4.744-1.656-7.115-2.522c0,0,0,0.038-0.038,0.038
				c2.372,0.828,4.744,1.656,7.078,2.485C406.896,392.235,406.933,392.235,406.933,392.235z"/>
		</g>
		<g>
			<path fill="#FCF7F7" d="M463.518,280.685c1.205,0.414,2.409,0.866,3.614,1.28v-0.038
				C465.965,281.514,464.76,281.099,463.518,280.685C463.555,280.685,463.555,280.685,463.518,280.685z"/>
		</g>
		<g>
			<path fill="#FCF7F7" d="M355.657,465.385c-1.355,2.824-2.936,5.497-5.271,7.642c-8.471,7.831-22.814,8.132-31.586,0.64
				c-1.732-1.468-3.426-3.049-4.217-5.158c-0.941-2.598-1.732-5.233-2.297-7.944c-1.769-8.546-1.167-17.092,0.565-25.6
				c1.242-6.099,3.727-11.558,7.492-16.49c1.205-1.581,2.334-3.238,3.464-4.857c2.297-3.238,3.689-6.852,5.082-10.504
				c1.694-4.442,2.861-8.96,2.974-13.666c0.113-5.685,0.075-11.37-0.151-17.017c-0.301-7.868,1.506-15.134,5.911-21.61
				c3.238-4.744,6.626-9.374,10.165-13.892c1.205-1.544,2.974-2.786,4.744-3.689c5.572-2.824,11.37-2.748,17.205-0.678
				c4.518,1.619,7.868,4.518,9.864,8.885c0.64,1.431,1.355,2.861,1.845,4.329c3.275,9.713,2.786,19.464,0.151,29.215
				c-1.92,7.002-4.668,13.741-7.304,20.48c-2.522,6.475-4.894,12.988-6.061,19.878c-0.904,5.271-1.619,10.579-2.447,15.887
				c-1.28,8.057-3.012,16.038-5.497,23.831C358.782,458.495,357.314,461.996,355.657,465.385z M322.339,434.401
				c3.275-2.146,6.475-4.442,9.864-6.362c5.911-3.351,12.311-3.765,18.861-2.409c2.372,0.489,4.706,1.092,7.04,1.619
				c0.64,0.151,1.318,0.339,1.958,0.489c0.376-2.56,0.678-5.082,1.092-7.567c1.318-7.944,3.464-15.661,6.137-23.266
				c2.861-8.132,5.835-16.188,8.734-24.283c0.113-0.339,0.264-0.715,0.414-1.205c-11.934-4.706-24.019-8.659-36.179-12.65
				c-1.054,2.56-1.656,5.158-2.033,7.793c-0.753,5.308-0.452,10.617-0.301,15.963c0.151,4.857,0.264,9.675-0.565,14.494
				c-1.205,7.04-4.028,13.403-8.094,19.276c-2.711,3.915-5.271,7.981-7.718,12.085c-1.544,2.598-2.635,5.421-3.012,8.546
				C319.854,436.132,321.097,435.229,322.339,434.401z M357.803,441.817c0.602-3.012,1.016-6.061,1.506-9.111
				c0.075-0.489,0.075-0.866-0.527-1.016c-3.501-0.904-6.965-2.108-10.504-2.711c-5.911-1.017-11.445,0.565-16.452,3.689
				c-2.937,1.807-5.647,3.991-8.395,6.137c10.391,4.969,21.196,8.584,32.151,12.273
				C356.373,447.841,357.201,444.867,357.803,441.817z M323.469,468.923c4.141,3.012,8.772,4.518,13.93,3.802
				c3.162-0.414,5.835-1.807,8.207-4.292c-2.372-1.732-4.631-3.464-7.002-5.045c-1.167-0.791-2.598-0.941-3.991-0.678
				c-5.572,0.941-10.993,0.188-16.339-1.468c-0.226-0.075-0.489-0.151-0.904-0.264C318.65,464.368,320.72,466.928,323.469,468.923z
				 M374.105,350.22c-0.301-2.221-0.602-4.292-0.828-6.4c-0.264-2.297-1.355-3.84-3.577-4.744c-4.292-1.769-8.621-2.56-13.101-0.979
				c-3.539,1.242-5.647,3.84-6.626,7.605C358.293,345.703,366.236,347.058,374.105,350.22z M325.803,444.641
				c-2.56-0.904-5.158-1.807-7.718-2.711c-0.565,1.318-0.64,11.52-0.075,13.704C321.247,454.09,324.071,449.46,325.803,444.641z
				 M358.556,361.176c3.388,0.678,6.551,1.28,10.014,1.958c-1.016-4.706-1.958-9.186-2.899-13.666
				c-0.151-0.038-0.339-0.038-0.489-0.075C362.999,353.232,360.815,357.072,358.556,361.176z M344.024,464.33
				c0.113,0.038,0.226,0.075,0.339,0.113c3.953-2.146,7.417-4.932,10.353-8.697c-2.899-1.017-5.685-1.995-8.734-3.087
				C345.304,456.537,344.664,460.453,344.024,464.33z M376.627,367.463c1.882-3.012,0.678-9.6-2.522-13.478
				c-1.393,3.577-2.711,7.078-4.104,10.73C372.26,365.656,374.443,366.56,376.627,367.463z M327.949,459.21
				c0.188-0.075,0.376-0.301,0.452-0.489c1.581-3.313,3.162-6.588,4.706-9.901c0.038-0.038,0-0.113,0-0.339
				c-1.355-0.64-2.748-1.28-4.254-1.995c-1.544,4.744-3.049,9.337-4.631,14.193C325.652,460.152,326.781,459.7,327.949,459.21z
				 M338.791,458.872c0.151,0.038,0.452-0.113,0.489-0.264c1.167-2.409,2.259-4.781,3.426-7.228c-1.845-0.64-3.614-1.28-5.534-1.958
				c-0.979,2.748-1.92,5.459-2.937,8.32C335.742,458.119,337.248,458.533,338.791,458.872z M357.577,348.413
				c-0.113-0.038-0.188-0.038-0.301-0.075c-2.071,3.238-4.141,6.475-6.25,9.788c1.92,0.678,3.689,1.318,5.609,1.995
				C356.975,356.169,357.276,352.291,357.577,348.413z M341.502,354.55c2.071,0.979,3.991,1.882,6.061,2.899
				c0-3.087,0-6.024,0.038-9.224C345.455,350.409,343.535,352.404,341.502,354.55z"/>
		</g>
		<g>
			<path fill="#FCF7F7" d="M498.53,357.788c0.376-2.711,0.64-5.459,1.129-8.17c0.339-1.732-0.226-2.56-1.732-3.313
				c-3.2-1.656-6.4-3.125-10.052-3.388c-3.351-0.264-6.362,0.565-8.885,2.861c-0.264,0.264-0.565,0.715-0.489,1.017
				c0.678,5.647,2.899,10.541,7.567,14.08c1.92,1.468,4.141,2.334,6.551,2.485c0.64,0.038,1.393-0.151,1.958-0.527
				c1.882-1.205,3.012-3.012,3.652-5.12C498.342,357.75,498.455,357.788,498.53,357.788z"/>
		</g>
	</g>
	<g>
		<path fill="#ED304F" d="M86.514,435.643H71.869H36.104H21.422v-15.398v-59.37h15.925l16.678,30.683l16.565-30.683h15.925v59.333
			V435.643z M36.066,388.282v31.963h35.765v-32.49l-12.085,20.48H47.662L36.066,388.282z"/>
		<path fill="#ED304F" d="M142.346,435.417H94.797v-74.203h46.909v14.118h-31.737v24.094h32.377v13.892h-32.377v8.17h32.377
			L142.346,435.417L142.346,435.417z"/>
		<path fill="#ED304F" d="M215.834,360.988v59.333v15.398h-14.758V420.32v-1.167v-31.436l-12.085,20.593h-12.085l-11.483-19.953
			v30.796v1.167v15.398h-14.758V420.32v-59.333h16.038l16.565,30.57l16.565-30.57H215.834z"/>
		<path fill="#ED304F" d="M271.665,435.417h-47.549v-74.203h46.909v14.118h-31.737v24.094h32.377v13.892h-32.377v8.17h32.377
			V435.417z"/>
	</g>
	<g>
		<path fill="#FFFFFF" d="M62.42,451.719c-2.899,0-5.647,0.565-8.282,1.694c-2.635,1.129-4.932,2.673-6.89,4.668
			c-1.995,1.995-3.539,4.292-4.668,6.89c-1.129,2.635-1.694,5.421-1.694,8.395c0,2.899,0.565,5.647,1.694,8.282
			c1.129,2.635,2.673,4.932,4.668,6.89c1.995,1.995,4.292,3.539,6.89,4.668c2.635,1.129,5.384,1.694,8.282,1.694
			c1.694,0,3.351-0.151,4.932-0.489c1.581-0.301,3.012-0.828,4.292-1.544v-12.424H57.977v-13.817h28.876v35.539v-0.753
			c-3.313,2.974-7.153,5.271-11.483,6.852c-4.329,1.581-8.621,2.372-12.951,2.372c-5.045,0-9.788-0.941-14.344-2.861
			c-4.518-1.92-8.508-4.555-11.897-7.906c-3.388-3.351-6.099-7.304-8.057-11.821c-1.995-4.518-2.974-9.412-2.974-14.645
			c0-5.082,0.979-9.901,2.974-14.457c1.995-4.518,4.668-8.508,8.057-11.934c3.388-3.426,7.379-6.137,11.897-8.132
			c4.518-1.995,9.299-2.974,14.344-2.974c4.329,0,8.546,0.791,12.687,2.372c4.141,1.581,8.057,3.878,11.746,6.852l-10.617,11.784
			c-1.92-1.619-4.028-2.899-6.325-3.84C67.615,452.17,65.13,451.719,62.42,451.719z"/>
		<path fill="#FFFFFF" d="M142.157,510.336H94.609v-74.203h46.909v14.118h-31.737v24.094h32.377v13.892h-32.377v8.17h32.377
			L142.157,510.336L142.157,510.336z"/>
		<path fill="#FFFFFF" d="M215.947,436.132v15.812v58.617h-13.892l-35.577-47.172v47.135H150.44v-58.58v-15.812h14.645
			l21.007,27.295l14.005,18.485v-25.487v-4.442V436.17h15.85V436.132z"/>
		<path fill="#FFFFFF" d="M271.778,510.336h-47.549v-74.203h46.909v14.118h-31.737v24.094h32.377v13.892h-32.377v8.17h32.377
			L271.778,510.336L271.778,510.336z"/>
		<path fill="#FFFFFF" d="M334.537,462.335c0,2.899-0.339,5.685-1.054,8.395c-0.715,2.673-1.656,5.158-2.899,7.379
			c-1.242,2.221-2.711,4.217-4.442,5.948c-1.732,1.732-3.614,3.049-5.647,3.991l15.925,22.513h-17.845l-13.553-19.2h-9.6v19.2
			h-15.398v-74.429h28.085c4.254,0,7.831,0.602,10.805,1.807c2.974,1.205,5.572,2.937,7.831,5.195
			c0.904,0.979,1.845,2.184,2.824,3.614c0.941,1.431,1.769,2.974,2.485,4.631s1.28,3.426,1.732,5.308
			C334.311,458.533,334.537,460.415,334.537,462.335z M319.139,463.088c0-3.878-1.167-7.002-3.539-9.337
			c-2.372-2.334-5.421-3.501-9.261-3.501h-10.88v27.596h11.52c1.92,0,3.614-0.452,5.12-1.318c1.506-0.866,2.786-2.033,3.84-3.464
			c1.054-1.431,1.882-2.974,2.409-4.706C318.875,466.589,319.139,464.858,319.139,463.088z"/>
		<path fill="#FFFFFF" d="M358.406,504.275l-2.56,6.362h-14.645l26.24-74.091h14.645l26.24,74.091h-16.038l-1.92-6.362H358.406z
			 M362.999,490.797h22.927l-11.483-33.13L362.999,490.797z"/>
		<path fill="#FFFFFF" d="M418.19,510.449v-59.483h-18.372v-14.532h52.443v14.532h-18.899v59.483H418.19z"/>
		<path fill="#FFFFFF" d="M494.313,436.132c5.158,0,10.014,0.979,14.532,2.937s8.471,4.593,11.821,7.944
			c3.351,3.351,6.024,7.304,7.981,11.821c1.958,4.518,2.937,9.374,2.937,14.532s-0.979,10.014-2.937,14.532
			c-1.958,4.518-4.593,8.471-7.981,11.821c-3.351,3.351-7.304,6.024-11.821,7.981c-4.518,1.958-9.374,2.936-14.532,2.936
			s-10.014-0.979-14.532-2.936c-4.518-1.958-8.471-4.593-11.821-7.981c-3.351-3.351-6.024-7.304-7.944-11.821
			c-1.958-4.518-2.937-9.374-2.937-14.532c0-5.158,0.979-10.014,2.937-14.532c1.958-4.518,4.593-8.471,7.944-11.821
			s7.304-6.024,11.821-7.944C484.299,437.074,489.156,436.132,494.313,436.132z M494.313,495.766c3.049,0,5.948-0.602,8.697-1.807
			c2.748-1.205,5.158-2.824,7.228-4.894s3.69-4.405,4.894-7.115c1.205-2.673,1.807-5.572,1.807-8.584c0-3.2-0.602-6.174-1.807-9.035
			c-1.205-2.824-2.824-5.308-4.894-7.379s-4.442-3.727-7.228-4.932c-2.748-1.205-5.647-1.807-8.697-1.807
			c-3.2,0-6.174,0.602-8.922,1.807c-2.748,1.205-5.12,2.861-7.115,4.932c-1.995,2.071-3.539,4.555-4.668,7.379
			c-1.129,2.824-1.694,5.835-1.694,9.035c0,3.049,0.565,5.911,1.694,8.584c1.129,2.673,2.673,5.045,4.668,7.115
			c1.995,2.071,4.367,3.689,7.115,4.894C488.139,495.164,491.113,495.766,494.313,495.766z"/>
		<path fill="#FFFFFF" d="M593.063,462.335c0,2.899-0.339,5.685-1.054,8.395c-0.715,2.673-1.656,5.158-2.899,7.379
			c-1.242,2.221-2.711,4.217-4.442,5.948c-1.732,1.732-3.614,3.049-5.647,3.991l15.925,22.513h-17.807l-13.553-19.2h-9.6v19.2
			h-15.398v-74.429h28.085c4.254,0,7.831,0.602,10.805,1.807c2.974,1.205,5.572,2.937,7.831,5.195
			c0.904,0.979,1.845,2.184,2.824,3.614c0.941,1.431,1.769,2.974,2.485,4.631c0.715,1.656,1.28,3.426,1.732,5.308
			C592.8,458.533,593.063,460.415,593.063,462.335z M577.665,463.088c0-3.878-1.167-7.002-3.539-9.337s-5.421-3.501-9.261-3.501
			h-10.88v27.596h11.52c1.92,0,3.614-0.452,5.12-1.318c1.506-0.866,2.786-2.033,3.84-3.464s1.882-2.974,2.409-4.706
			C577.402,466.589,577.665,464.858,577.665,463.088z"/>
	</g>
</g>
</svg>
